<svg xmlns="http://www.w3.org/2000/svg" width="500" height="400" viewBox="0 0 500 400">
   <style>
      rect {
         fill: transparent;
         stroke: black;
      }
      line {
         fill: transparent;
         stroke: black;
      }
      path {
         fill: transparent;
         stroke: black;
      }
      text {
         font-size: 12px;
         fill: black;
      }
   </style>
   <rect width="500" height="400" style="fill: white;"/>
   <rect x="0" y="50" width="50" height="150"/>
   <text x="4" y="66">Tab</text>
   <text x="4" y="116">Ctrl</text>
   <line x1="0" y1="100" x2="50" y2="100"/>
   <text x="4" y="166">Shift</text>
   <line x1="0" y1="150" x2="50" y2="150"/>
   <rect x="50" y="40" width="50" height="150"/>
   <text x="54" y="56">'</text>
   <text x="54" y="106">A</text>
   <line x1="50" y1="90" x2="100" y2="90"/>
   <text x="54" y="156">Z</text>
   <line x1="50" y1="140" x2="100" y2="140"/>
   <rect x="100" y="15" width="50" height="150"/>
   <text x="104" y="31">,</text>
   <text x="104" y="81">O</text>
   <line x1="100" y1="65" x2="150" y2="65"/>
   <text x="104" y="131">Q</text>
   <line x1="100" y1="115" x2="150" y2="115"/>
   <rect x="150" y="0" width="50" height="150"/>
   <text x="154" y="16">.</text>
   <text x="154" y="66">E</text>
   <line x1="150" y1="50" x2="200" y2="50"/>
   <text x="154" y="116">J</text>
   <line x1="150" y1="100" x2="200" y2="100"/>
   <rect x="200" y="10" width="50" height="150"/>
   <text x="204" y="26">P</text>
   <text x="204" y="76">U</text>
   <line x1="200" y1="60" x2="250" y2="60"/>
   <text x="204" y="126">K</text>
   <line x1="200" y1="110" x2="250" y2="110"/>
   <rect x="250" y="15" width="50" height="150"/>
   <text x="254" y="31">Y</text>
   <text x="254" y="81">I</text>
   <line x1="250" y1="65" x2="300" y2="65"/>
   <text x="254" y="131">X</text>
   <line x1="250" y1="115" x2="300" y2="115"/>
   <path d="M 183 191 A 200 200 0 0 1 417 304 L 372 324 A 150 150 0 0 0 196 240 Z"/>
   <line x1="249" y1="185" x2="245" y2="235"/>
   <line x1="313" y1="201" x2="294" y2="247"/>
   <line x1="381" y1="248" x2="344" y2="282"/>
</svg>
