<svg xmlns="http://www.w3.org/2000/svg" width="1000" height="400" viewBox="0 0 1000 400">
   <style>
      rect {
         fill: transparent;
         stroke: black;
      }
      line {
         fill: transparent;
         stroke: black;
      }
      path {
         fill: transparent;
         stroke: black;
      }
      text {
         font-size: 12px;
         fill: black;
      }
   </style>
   <rect width="1000" height="400" style="fill: white;"/>
   <rect x="0" y="50" width="50" height="150"/>
   <text x="4" y="66">Tab</text>
   <line x1="0" y1="100" x2="50" y2="100"/>
   <text x="4" y="116">Ctrl</text>
   <line x1="0" y1="150" x2="50" y2="150"/>
   <text x="4" y="166">Shift</text>
   <rect x="50" y="40" width="50" height="150"/>
   <text x="54" y="56">'</text>
   <line x1="50" y1="90" x2="100" y2="90"/>
   <text x="54" y="106">A</text>
   <line x1="50" y1="140" x2="100" y2="140"/>
   <text x="54" y="156">Z</text>
   <rect x="100" y="15" width="50" height="150"/>
   <text x="104" y="31">,</text>
   <line x1="100" y1="65" x2="150" y2="65"/>
   <text x="104" y="81">O</text>
   <line x1="100" y1="115" x2="150" y2="115"/>
   <text x="104" y="131">Q</text>
   <rect x="150" y="0" width="50" height="150"/>
   <text x="154" y="16">.</text>
   <line x1="150" y1="50" x2="200" y2="50"/>
   <text x="154" y="66">E</text>
   <line x1="150" y1="100" x2="200" y2="100"/>
   <text x="154" y="116">J</text>
   <rect x="200" y="10" width="50" height="150"/>
   <text x="204" y="26">P</text>
   <line x1="200" y1="60" x2="250" y2="60"/>
   <text x="204" y="76">U</text>
   <line x1="200" y1="110" x2="250" y2="110"/>
   <text x="204" y="126">K</text>
   <rect x="250" y="15" width="50" height="150"/>
   <text x="254" y="31">Y</text>
   <line x1="250" y1="65" x2="300" y2="65"/>
   <text x="254" y="81">I</text>
   <line x1="250" y1="115" x2="300" y2="115"/>
   <text x="254" y="131">X</text>
   <path d="M 183 191 A 200 200 0 0 1 417 304 L 372 324 A 150 150 0 0 0 196 240 Z"/>
   <text x="192" y="206" transform="rotate(-5.45 192 206)">Alt</text>
   <line x1="249" y1="185" x2="245" y2="235"/>
   <text x="253" y="201" transform="rotate(13.65 253 201)">_</text>
   <line x1="313" y1="201" x2="294" y2="247"/>
   <text x="311" y="217" transform="rotate(35.13 311 217)">Space</text>
   <line x1="381" y1="248" x2="344" y2="282"/>
   <text x="373" y="263" transform="rotate(56.62 373 263)">Backspace</text>
   <rect x="700" y="15" width="50" height="150"/>
   <text x="704" y="31">F</text>
   <line x1="700" y1="65" x2="750" y2="65"/>
   <text x="704" y="81">D</text>
   <line x1="700" y1="115" x2="750" y2="115"/>
   <text x="704" y="131">B</text>
   <rect x="750" y="10" width="50" height="150"/>
   <text x="754" y="26">G</text>
   <line x1="750" y1="60" x2="800" y2="60"/>
   <text x="754" y="76">H</text>
   <line x1="750" y1="110" x2="800" y2="110"/>
   <text x="754" y="126">M</text>
   <rect x="800" y="0" width="50" height="150"/>
   <text x="804" y="16">C</text>
   <line x1="800" y1="50" x2="850" y2="50"/>
   <text x="804" y="66">T</text>
   <line x1="800" y1="100" x2="850" y2="100"/>
   <text x="804" y="116">W</text>
   <rect x="850" y="15" width="50" height="150"/>
   <text x="854" y="31">R</text>
   <line x1="850" y1="65" x2="900" y2="65"/>
   <text x="854" y="81">N</text>
   <line x1="850" y1="115" x2="900" y2="115"/>
   <text x="854" y="131">V</text>
   <rect x="900" y="40" width="50" height="150"/>
   <text x="904" y="56">L</text>
   <line x1="900" y1="90" x2="950" y2="90"/>
   <text x="904" y="106">S</text>
   <line x1="900" y1="140" x2="950" y2="140"/>
   <text x="904" y="156">;</text>
   <rect x="950" y="50" width="50" height="150"/>
   <text x="954" y="66">=</text>
   <line x1="950" y1="100" x2="1000" y2="100"/>
   <text x="954" y="116">[</text>
   <line x1="950" y1="150" x2="1000" y2="150"/>
   <text x="954" y="166">-</text>
   <path d="M 582 304 A 200 200 0 0 1 816 191 L 803 240 A 150 150 0 0 0 627 324 Z"/>
   <text x="598" y="306" transform="rotate(-56.62 598 306)">Ctrl+[</text>
   <line x1="618" y1="248" x2="655" y2="282"/>
   <text x="633" y="256" transform="rotate(-35.13 633 256)">Enter</text>
   <line x1="686" y1="201" x2="705" y2="247"/>
   <text x="697" y="214" transform="rotate(-13.65 697 214)">F13</text>
   <line x1="750" y1="185" x2="754" y2="235"/>
   <text x="756" y="201" transform="rotate(5.45 756 201)">Super</text>
</svg>
