<svg xmlns="http://www.w3.org/2000/svg" width="300" height="300" viewBox="0 0 300 300">
   <style>
      rect {
         fill: transparent;
         stroke: black;
      }
      line {
         fill: transparent;
         stroke: black;
      }
   </style>
   <rect width="300" height="300" style="fill: white;"/>
   <rect x="0" y="50" width="50" height="150"/>
   <line x1="0" y1="100" x2="50" y2="100"/>
   <line x1="0" y1="150" x2="50" y2="150"/>
   <rect x="50" y="40" width="50" height="150"/>
   <line x1="50" y1="90" x2="100" y2="90"/>
   <line x1="50" y1="140" x2="100" y2="140"/>
   <rect x="100" y="15" width="50" height="150"/>
   <line x1="100" y1="65" x2="150" y2="65"/>
   <line x1="100" y1="115" x2="150" y2="115"/>
   <rect x="150" y="0" width="50" height="150"/>
   <line x1="150" y1="50" x2="200" y2="50"/>
   <line x1="150" y1="100" x2="200" y2="100"/>
   <rect x="200" y="10" width="50" height="150"/>
   <line x1="200" y1="60" x2="250" y2="60"/>
   <line x1="200" y1="110" x2="250" y2="110"/>
   <rect x="250" y="15" width="50" height="150"/>
   <line x1="250" y1="65" x2="300" y2="65"/>
   <line x1="250" y1="115" x2="300" y2="115"/>
</svg>
