<svg xmlns="http://www.w3.org/2000/svg" width="900" height="340" viewBox="0 0 900 340">
   <style>
      rect {
         fill: transparent;
         stroke: black;
      }
      line {
         fill: transparent;
         stroke: black;
      }
      path {
         fill: transparent;
         stroke: black;
      }
      text {
         font-size: 12px;
         fill: black;
      }
   </style>
   <rect width="900" height="340" style="fill: white;"/>
   <rect x="10" y="60" width="50" height="150"/>
   <text x="14" y="76">Tab</text>
   <line x1="10" y1="110" x2="60" y2="110"/>
   <text x="14" y="126">Ctrl</text>
   <line x1="10" y1="160" x2="60" y2="160"/>
   <text x="14" y="176">Shift</text>
   <rect x="60" y="50" width="50" height="150"/>
   <text x="64" y="66">'</text>
   <line x1="60" y1="100" x2="110" y2="100"/>
   <text x="64" y="116">A</text>
   <line x1="60" y1="150" x2="110" y2="150"/>
   <text x="64" y="166">Z</text>
   <rect x="110" y="25" width="50" height="150"/>
   <text x="114" y="41">,</text>
   <line x1="110" y1="75" x2="160" y2="75"/>
   <text x="114" y="91">O</text>
   <line x1="110" y1="125" x2="160" y2="125"/>
   <text x="114" y="141">Q</text>
   <rect x="160" y="10" width="50" height="150"/>
   <text x="164" y="26">.</text>
   <line x1="160" y1="60" x2="210" y2="60"/>
   <text x="164" y="76">E</text>
   <line x1="160" y1="110" x2="210" y2="110"/>
   <text x="164" y="126">J</text>
   <rect x="210" y="20" width="50" height="150"/>
   <text x="214" y="36">P</text>
   <line x1="210" y1="70" x2="260" y2="70"/>
   <text x="214" y="86">U</text>
   <line x1="210" y1="120" x2="260" y2="120"/>
   <text x="214" y="136">K</text>
   <rect x="260" y="25" width="50" height="150"/>
   <text x="264" y="41">Y</text>
   <line x1="260" y1="75" x2="310" y2="75"/>
   <text x="264" y="91">I</text>
   <line x1="260" y1="125" x2="310" y2="125"/>
   <text x="264" y="141">X</text>
   <path d="M 188 196 A 200 200 0 0 1 422 309 L 377 329 A 150 150 0 0 0 201 245 Z"/>
   <text x="197" y="211" transform="rotate(-5.45 197 211)">Alt</text>
   <line x1="254" y1="190" x2="250" y2="240"/>
   <text x="258" y="206" transform="rotate(13.65 258 206)">_</text>
   <line x1="318" y1="206" x2="299" y2="252"/>
   <text x="316" y="222" transform="rotate(35.13 316 222)">Space</text>
   <line x1="386" y1="253" x2="349" y2="287"/>
   <text x="378" y="268" transform="rotate(56.62 378 268)">Backspace</text>
   <rect x="590" y="25" width="50" height="150"/>
   <text x="594" y="41">F</text>
   <line x1="590" y1="75" x2="640" y2="75"/>
   <text x="594" y="91">D</text>
   <line x1="590" y1="125" x2="640" y2="125"/>
   <text x="594" y="141">B</text>
   <rect x="640" y="20" width="50" height="150"/>
   <text x="644" y="36">G</text>
   <line x1="640" y1="70" x2="690" y2="70"/>
   <text x="644" y="86">H</text>
   <line x1="640" y1="120" x2="690" y2="120"/>
   <text x="644" y="136">M</text>
   <rect x="690" y="10" width="50" height="150"/>
   <text x="694" y="26">C</text>
   <line x1="690" y1="60" x2="740" y2="60"/>
   <text x="694" y="76">T</text>
   <line x1="690" y1="110" x2="740" y2="110"/>
   <text x="694" y="126">W</text>
   <rect x="740" y="25" width="50" height="150"/>
   <text x="744" y="41">R</text>
   <line x1="740" y1="75" x2="790" y2="75"/>
   <text x="744" y="91">N</text>
   <line x1="740" y1="125" x2="790" y2="125"/>
   <text x="744" y="141">V</text>
   <rect x="790" y="50" width="50" height="150"/>
   <text x="794" y="66">L</text>
   <line x1="790" y1="100" x2="840" y2="100"/>
   <text x="794" y="116">S</text>
   <line x1="790" y1="150" x2="840" y2="150"/>
   <text x="794" y="166">;</text>
   <rect x="840" y="60" width="50" height="150"/>
   <text x="844" y="76">=</text>
   <line x1="840" y1="110" x2="890" y2="110"/>
   <text x="844" y="126">[</text>
   <line x1="840" y1="160" x2="890" y2="160"/>
   <text x="844" y="176">-</text>
   <path d="M 477 309 A 200 200 0 0 1 711 196 L 698 245 A 150 150 0 0 0 522 329 Z"/>
   <text x="493" y="311" transform="rotate(-56.62 493 311)">Ctrl+[</text>
   <line x1="513" y1="253" x2="550" y2="287"/>
   <text x="528" y="261" transform="rotate(-35.13 528 261)">Enter</text>
   <line x1="581" y1="206" x2="600" y2="252"/>
   <text x="592" y="219" transform="rotate(-13.65 592 219)">F13</text>
   <line x1="645" y1="190" x2="649" y2="240"/>
   <text x="651" y="206" transform="rotate(5.45 651 206)">Super</text>
</svg>
