<svg xmlns="http://www.w3.org/2000/svg" width="900" height="340" viewBox="0 0 900 340">
   <style>
      rect {
         fill: transparent;
         stroke: black;
      }
      line {
         fill: transparent;
         stroke: black;
      }
      path {
         fill: transparent;
         stroke: black;
      }
      text {
         font-size: 12px;
         fill: black;
      }
      .oneshot {
         fill: dodgerblue;
      }
      .hold {
         fill: green;
      }
      .toggle {
         fill: red;
      }
   </style>
   <rect width="900" height="340" style="fill: white;"/>
   <rect x="10" y="60" width="50" height="150"/>
   <line x1="10" y1="110" x2="60" y2="110"/>
   <line x1="10" y1="160" x2="60" y2="160"/>
   <rect x="60" y="50" width="50" height="150"/>
   <line x1="60" y1="100" x2="110" y2="100"/>
   <line x1="60" y1="150" x2="110" y2="150"/>
   <rect x="110" y="25" width="50" height="150"/>
   <line x1="110" y1="75" x2="160" y2="75"/>
   <line x1="110" y1="125" x2="160" y2="125"/>
   <rect x="160" y="10" width="50" height="150"/>
   <line x1="160" y1="60" x2="210" y2="60"/>
   <line x1="160" y1="110" x2="210" y2="110"/>
   <rect x="210" y="20" width="50" height="150"/>
   <line x1="210" y1="70" x2="260" y2="70"/>
   <line x1="210" y1="120" x2="260" y2="120"/>
   <rect x="260" y="25" width="50" height="150"/>
   <line x1="260" y1="75" x2="310" y2="75"/>
   <line x1="260" y1="125" x2="310" y2="125"/>
   <path d="M 188 196 A 200 200 0 0 1 422 309 L 377 329 A 150 150 0 0 0 201 245 Z"/>
   <text x="197" y="211" transform="rotate(-8.63 197 211)">Esc</text>
   <line x1="254" y1="190" x2="250" y2="240"/>
   <text x="258" y="206" transform="rotate(10.46 258 206)">_</text>
   <line x1="318" y1="206" x2="299" y2="252"/>
   <text x="316" y="222" transform="rotate(31.15 316 222)">Space</text>
   <line x1="386" y1="253" x2="349" y2="287"/>
   <text x="378" y="268" transform="rotate(53.44 378 268)">Backspace</text>
   <rect x="590" y="25" width="50" height="150"/>
   <line x1="590" y1="75" x2="640" y2="75"/>
   <line x1="590" y1="125" x2="640" y2="125"/>
   <rect x="640" y="20" width="50" height="150"/>
   <line x1="640" y1="70" x2="690" y2="70"/>
   <text x="644" y="86">確認</text>
   <line x1="640" y1="120" x2="690" y2="120"/>
   <rect x="690" y="10" width="50" height="150"/>
   <text x="694" y="26">削除</text>
   <line x1="690" y1="60" x2="740" y2="60"/>
   <text x="694" y="76">変更</text>
   <line x1="690" y1="110" x2="740" y2="110"/>
   <rect x="740" y="25" width="50" height="150"/>
   <line x1="740" y1="75" x2="790" y2="75"/>
   <line x1="740" y1="125" x2="790" y2="125"/>
   <rect x="790" y="50" width="50" height="150"/>
   <line x1="790" y1="100" x2="840" y2="100"/>
   <line x1="790" y1="150" x2="840" y2="150"/>
   <rect x="840" y="60" width="50" height="150"/>
   <line x1="840" y1="110" x2="890" y2="110"/>
   <line x1="840" y1="160" x2="890" y2="160"/>
   <path d="M 477 309 A 200 200 0 0 1 711 196 L 698 245 A 150 150 0 0 0 522 329 Z"/>
   <text x="493" y="311" transform="rotate(-59.80 493 311)">Ctrl+[</text>
   <line x1="513" y1="253" x2="550" y2="287"/>
   <text x="528" y="261" transform="rotate(-39.11 528 261)">Enter</text>
   <line x1="581" y1="206" x2="600" y2="252"/>
   <text x="592" y="219" transform="rotate(-16.83 592 219)">F13</text>
   <line x1="645" y1="190" x2="649" y2="240"/>
   <text x="651" y="206" transform="rotate(2.27 651 206)">Super</text>
</svg>
